<svg width="165" height="140" viewBox="0 0 165 140" fill="none" xmlns="http://www.w3.org/2000/svg">
<path d="M96.0228 99.9666C95.0397 99.433 93.8228 99.8244 93.306 100.839C91.5749 104.227 90.4478 106.284 90.0056 106.95C88.1493 109.615 85.0586 111.057 81.8946 110.73C78.7319 110.404 75.9772 108.36 74.6694 105.368C73.3615 102.376 73.6989 98.8912 75.5539 96.2258C76.0164 95.5604 77.5668 93.8147 80.1027 91.0514C80.8697 90.2189 80.8381 88.9025 80.0319 88.1105C79.2257 87.3185 77.9508 87.3512 77.1838 88.1823C75.4627 89.9671 73.8302 91.8393 72.2924 93.794C70.4324 96.4621 69.5921 99.746 69.9333 103.014C70.2744 106.284 71.7718 109.307 74.1385 111.507C76.5052 113.705 79.5746 114.925 82.7586 114.93C83.4675 114.926 84.1739 114.864 84.8726 114.744C88.2604 114.181 91.2905 112.244 93.2857 109.361C94.5859 107.227 95.7813 105.029 96.8679 102.772C97.3848 101.757 97.0069 100.5 96.0226 99.9664L96.0228 99.9666Z" fill="#FFE500"/>
<path d="M131.088 34.4579C130.283 33.8199 129.145 33.9008 128.431 34.6458L83.5639 81.4271C83.0117 82.009 82.8386 82.8701 83.1217 83.6308L86.8656 93.7306C87.1525 94.5029 87.8563 95.0248 88.6562 95.0614L99.1224 95.4985V95.4972C99.8806 95.4959 100.573 95.0536 100.914 94.3542C109.911 75.8571 131.287 37.5126 131.508 37.1184C132.019 36.2456 131.839 35.1183 131.086 34.4581L131.088 34.4579ZM97.9959 91.3196L90.1464 90.9869L87.3286 83.4223L120.56 48.7555C113.676 61.3082 103.732 79.6603 97.9957 91.3182L97.9959 91.3196Z" fill="#FFE500"/>
<path d="M84.7849 98.6578C86.5463 99.9638 86.9482 102.496 85.6833 104.314C84.4184 106.131 81.9659 106.548 80.2055 105.242C78.4453 103.935 78.0435 101.403 79.3071 99.5854C80.572 97.768 83.0245 97.3518 84.7849 98.6578Z" fill="#FFE500"/>
<path d="M82.5593 6.49939e-06C69.6289 -0.00521239 56.8779 3.13264 45.3397 9.15787C33.8005 15.1844 23.7965 23.9301 16.1381 34.6862L15.9966 34.8114C15.9347 34.9106 15.8804 35.015 15.8361 35.1233C8.95345 44.8499 4.15429 55.9768 1.75601 67.766C-0.642311 79.5541 -0.58292 91.7351 1.92785 103.498V103.644V103.77V103.768C4.74566 116.792 10.4962 128.946 18.7149 139.243C19.4098 140.115 20.652 140.253 21.5125 139.555L36.2661 127.625C36.6767 127.273 36.9358 126.766 36.9851 126.216C37.0344 125.666 36.8701 125.12 36.5276 124.694C27.5106 113.382 22.7115 99.1113 22.9971 84.463C23.2827 69.815 28.6328 55.7552 38.0833 44.8261C47.5325 33.8963 60.4578 26.8184 74.5201 24.8704C88.5841 22.9238 102.859 26.2351 114.764 34.207C115.698 34.8332 116.947 34.5579 117.552 33.5938C118.158 32.6296 117.892 31.3405 116.958 30.7155C107.271 24.2625 96.0569 20.6679 84.5322 20.3248V4.15547C96.1827 4.47382 107.617 7.47078 118.003 12.9286C128.389 18.3863 137.467 26.1663 144.574 35.704L130.866 47.0095C130.035 47.7258 129.902 48.994 130.564 49.8773L133.222 53.7848C139.651 64.6532 142.648 77.3168 141.796 90.0215C140.945 102.727 136.289 114.844 128.472 124.695C128.143 125.135 127.998 125.693 128.07 126.244C128.142 126.794 128.424 127.291 128.854 127.625L143.567 139.513V139.514C144.403 140.169 145.586 140.05 146.285 139.244C159.564 122.525 166.19 101.22 164.824 79.6467C163.457 58.0718 154.198 37.8422 138.923 23.0522C123.649 8.26332 103.499 0.0226489 82.5597 0.000270247L82.5593 6.49939e-06ZM20.587 134.963C13.8065 125.98 8.94426 115.619 6.31598 104.558L20.6869 100.401L20.6882 100.402C22.7062 109.541 26.6056 118.125 32.12 125.569L20.587 134.963ZM19.0365 85.7702V85.7715C19.0378 89.336 19.3208 92.8939 19.8819 96.4114L5.4705 100.568C3.48413 89.996 3.57005 79.1197 5.72448 68.5814C7.87763 58.0444 12.055 48.0595 18.0103 39.2173L29.946 49.1307C22.8334 59.9376 19.0325 72.7044 19.036 85.7715L19.0365 85.7702ZM32.241 45.7225L20.3052 35.8091C27.4218 26.2247 36.5261 18.4079 46.9506 12.9308C57.3754 7.45375 68.8551 4.45535 80.5473 4.15641V20.2005C71.1677 20.4967 61.9685 22.9405 53.615 27.353C45.2614 31.7669 37.9614 38.0413 32.2413 45.7222L32.241 45.7225ZM136.483 51.4999L134.892 49.047L146.968 39.0711C152.94 47.9264 157.13 57.9269 159.291 68.4823C161.451 79.0386 161.538 89.9347 159.548 100.526L145.137 96.3697C147.631 80.8069 144.601 64.8372 136.603 51.3954L136.483 51.4999ZM144.312 135.005L132.879 125.632C138.388 118.199 142.287 109.63 144.312 100.506L158.683 104.663C156.042 115.686 151.18 126.012 144.412 134.964L144.312 135.005Z" fill="#FFE500"/>
</svg>
