<svg width="178" height="189" viewBox="0 0 178 189" fill="none" xmlns="http://www.w3.org/2000/svg">
<path d="M93.8157 83.8104C96.1198 84.0826 98.4163 84.5603 100.644 85.2296L101.622 81.4815C99.2056 80.7552 96.714 80.2372 94.2144 79.9414L93.8157 83.8104Z" fill="#FFE500"/>
<path d="M123.252 101.756L126.145 99.4066C124.628 97.2569 122.939 95.2265 121.124 93.3711L118.622 96.1902C120.296 97.9011 121.854 99.773 123.252 101.756L123.252 101.756Z" fill="#FFE500"/>
<path d="M134.904 137.677L131.324 137.038C130.944 139.492 130.373 141.925 129.627 144.272L133.062 145.529C133.872 142.981 134.492 140.339 134.904 137.677L134.904 137.677Z" fill="#FFE500"/>
<path d="M82.1477 174.789L81.5613 178.632C84.0363 179.066 86.5658 179.287 89.082 179.287C90.6949 179.287 92.3233 179.196 93.9232 179.018L93.5452 175.146C89.7668 175.57 85.8909 175.447 82.1473 174.789L82.1477 174.789Z" fill="#FFE500"/>
<path d="M46.9185 150.341C47.9618 152.761 49.2019 155.115 50.5842 157.304L50.6412 157.395L53.6106 155.155C52.3175 153.106 51.1745 150.937 50.214 148.706L46.9185 150.341Z" fill="#FFE500"/>
<path d="M67.3118 173.474C69.5305 174.738 71.8616 175.817 74.2396 176.676L75.4008 172.988C73.208 172.194 71.059 171.201 69.015 170.034L67.3118 173.474Z" fill="#FFE500"/>
<path d="M55.3521 163.697C57.0788 165.656 58.9648 167.477 60.9597 169.107L63.159 166.011C61.3208 164.508 59.5824 162.829 57.9888 161.022L55.3521 163.697Z" fill="#FFE500"/>
<path d="M107.167 87.8172C109.265 88.8643 111.299 90.1045 113.213 91.5043L115.256 88.2852C113.18 86.7687 110.974 85.423 108.698 84.2871L107.167 87.8172Z" fill="#FFE500"/>
<path d="M46.5174 134.375L42.9097 134.787C43.1763 137.473 43.6501 140.149 44.318 142.739L47.8158 141.703C47.2009 139.316 46.7634 136.851 46.5174 134.375V134.375Z" fill="#FFE500"/>
<path d="M67.0831 90.049C69.0701 88.7728 71.167 87.6618 73.3197 86.748L71.9838 83.1289C69.6486 84.1205 67.373 85.3259 65.219 86.7089L67.0831 90.049Z" fill="#FFE500"/>
<path d="M100.38 173.769L101.337 177.525C103.762 176.814 106.147 175.885 108.428 174.764L106.916 171.225C104.815 172.258 102.616 173.113 100.38 173.769L100.38 173.769Z" fill="#FFE500"/>
<path d="M118.417 162.922C116.732 164.624 114.904 166.191 112.983 167.577L115.011 170.807C117.093 169.302 119.078 167.603 120.905 165.756L118.417 162.922Z" fill="#FFE500"/>
<path d="M49.3275 112.39C50.1857 110.09 51.2291 107.843 52.429 105.713L49.3223 103.699C48.0214 106.01 46.8901 108.447 45.9595 110.943L49.3275 112.39Z" fill="#FFE500"/>
<path d="M79.9706 84.5777C82.2294 84.0513 84.5476 83.718 86.8623 83.5903L86.6746 79.7031C84.166 79.842 81.6495 80.2017 79.199 80.7738L79.9706 84.5777Z" fill="#FFE500"/>
<path d="M47.2797 119.518L43.7356 118.679C43.1958 121.303 42.8528 124.003 42.7156 126.699L46.3389 126.911C46.4658 124.424 46.7829 121.937 47.28 119.518L47.2797 119.518Z" fill="#FFE500"/>
<path d="M126.984 108.052C128.063 110.252 128.982 112.56 129.714 114.914L133.157 113.682C132.362 111.128 131.366 108.623 130.194 106.237L126.984 108.052Z" fill="#FFE500"/>
<path d="M56.4988 99.662C58.003 97.7705 59.6612 95.9984 61.4281 94.3947L59.0839 91.4229C57.1681 93.1615 55.3688 95.085 53.739 97.1359L56.4988 99.662Z" fill="#FFE500"/>
<path d="M134.95 121.544L131.367 122.158C131.724 124.556 131.904 127.01 131.904 129.605L135.533 129.453C135.534 126.804 135.337 124.145 134.95 121.544L134.95 121.544Z" fill="#FFE500"/>
<path d="M124.565 155.165C124.087 155.922 123.593 156.662 123.079 157.381L125.96 159.748C126.518 158.967 127.055 158.164 127.57 157.345C128.465 155.929 129.298 154.45 130.048 152.948L126.849 151.108C126.159 152.492 125.391 153.857 124.565 155.165H124.565Z" fill="#FFE500"/>
<path d="M89.0868 90.3408C89.0817 90.3408 89.0778 90.3422 89.0739 90.3422C76.9552 90.345 65.6611 96.7816 58.8585 107.565C54.7808 114.053 52.6255 121.623 52.6255 129.455C52.6255 137.298 54.7859 144.867 58.8737 151.346C65.667 162.14 76.9612 168.582 89.0838 168.582C101.215 168.582 112.514 162.139 119.307 151.347C123.395 144.867 125.555 137.297 125.555 129.455C125.555 121.623 123.4 114.053 119.321 107.562C112.522 96.7859 101.228 90.3504 89.1044 90.3419C89.0966 90.3419 89.092 90.3408 89.0868 90.3408ZM87.272 94.4694V112.386C83.0392 112.245 78.9642 111.631 75.2193 110.564C77.8833 101.873 82.278 95.6913 87.272 94.4694ZM87.272 116.279V127.46H72.5825C72.7132 122.794 73.2892 118.347 74.2264 114.3C78.2948 115.465 82.7065 116.135 87.272 116.279ZM87.272 131.352V142.651C82.7088 142.795 78.2988 143.465 74.2304 144.63C73.2842 140.548 72.7055 136.061 72.5813 131.352L87.272 131.352ZM87.272 146.543V164.447C82.2807 163.226 77.8872 157.05 75.2233 148.364C78.9682 147.297 83.0419 146.685 87.272 146.543ZM90.9003 164.447V146.543C95.1281 146.685 99.2031 147.299 102.949 148.365C100.285 157.052 95.8929 163.226 90.9003 164.447ZM90.9003 142.65V131.351H105.592C105.468 136.06 104.888 140.548 103.942 144.631C99.8723 143.466 95.4631 142.796 90.9003 142.65ZM90.9003 127.459V116.279C95.4644 116.135 99.8761 115.464 103.946 114.297C104.883 118.345 105.46 122.792 105.59 127.459L90.9003 127.459ZM90.9003 112.386V94.4694C95.8942 95.6901 100.289 101.871 102.953 110.563C99.208 111.631 95.1317 112.245 90.9003 112.386ZM78.383 96.1705C75.6284 99.4576 73.337 103.989 71.697 109.406C69.1443 108.43 66.8221 107.219 64.7509 105.822C68.4906 101.392 73.1856 98.091 78.383 96.1705ZM61.8642 109.744C62.0545 109.441 62.2603 109.155 62.4597 108.861C64.8985 110.552 67.6634 111.992 70.7015 113.135C69.6879 117.514 69.0834 122.341 68.9553 127.46H56.3227C56.6528 121.12 58.5425 115.031 61.8642 109.744ZM56.3189 131.352H68.9528C69.0758 136.514 69.6816 141.382 70.7043 145.794C67.6739 146.932 64.9127 148.368 62.4767 150.053C62.2774 149.755 62.0702 149.468 61.8787 149.162C58.53 143.856 56.636 137.732 56.3189 131.352ZM64.7665 153.097C66.835 151.704 69.1533 150.497 71.701 149.524C73.3424 154.938 75.6322 159.467 78.3883 162.753C73.1935 160.829 68.5022 157.527 64.7665 153.097ZM99.787 162.751C102.542 159.465 104.833 154.938 106.473 149.525C109.02 150.499 111.34 151.705 113.412 153.097C109.677 157.527 104.984 160.829 99.787 162.751ZM116.3 149.165C116.109 149.469 115.902 149.758 115.702 150.055C113.264 148.37 110.501 146.935 107.469 145.796C108.492 141.384 109.099 136.516 109.222 131.354H121.861C121.544 137.732 119.65 143.856 116.3 149.165ZM121.859 127.459H109.221C109.093 122.341 108.488 117.512 107.475 113.133C110.513 111.99 113.28 110.552 115.722 108.859C115.92 109.153 116.126 109.44 116.316 109.741C119.637 115.031 121.527 121.12 121.859 127.459ZM113.428 105.819C111.354 107.216 109.031 108.427 106.477 109.403C104.836 103.989 102.547 99.4572 99.7919 96.1702C104.993 98.0907 109.69 101.392 113.428 105.819Z" fill="#FFE500"/>
<path d="M178 128.025C178 120.728 175.036 114.174 170.354 109.622L170.355 87.2675C170.355 39.149 133.863 0 89.0106 0C44.1481 0 7.64632 39.149 7.64632 87.2675V109.622C2.96289 114.174 0 120.727 0 128.025C0 141.133 9.51034 151.879 21.5153 152.799C22.2363 157.234 25.8309 160.626 30.17 160.626C35.0254 160.626 38.9762 156.387 38.9762 151.178V104.873C38.9762 99.6638 35.0254 95.424 30.17 95.424C25.8322 95.424 22.2374 98.8139 21.5153 103.251C20.5043 103.329 19.505 103.451 18.5329 103.663V87.2683C18.5329 45.5916 50.1487 11.6829 89.0079 11.6829C127.859 11.6829 159.466 45.5913 159.466 87.2683V103.663C158.496 103.451 157.495 103.329 156.484 103.251C155.762 98.8152 152.167 95.424 147.829 95.424C142.974 95.424 139.023 99.6638 139.023 104.873V151.178C139.023 156.387 142.975 160.626 147.831 160.626C148.097 160.626 148.348 160.566 148.609 160.541C148.385 164.167 146.851 171.503 138.622 175.703C137.088 172.095 133.308 169.533 128.889 169.533C123.117 169.533 118.42 173.899 118.42 179.266C118.42 184.633 123.117 189 128.889 189C134.525 189 139.121 184.835 139.338 179.644C151.169 174.162 152.257 163.168 152.256 159.299C154.446 157.92 156.033 155.579 156.485 152.8C168.489 151.881 177.999 141.135 177.999 128.027L178 128.025ZM128.889 185.106C125.117 185.106 122.049 182.487 122.049 179.267C122.049 176.046 125.117 173.427 128.889 173.427C132.661 173.427 135.731 176.046 135.731 179.267C135.729 182.487 132.661 185.106 128.889 185.106ZM30.1704 99.3176C33.0247 99.3176 35.3482 101.81 35.3482 104.874V151.179C35.3482 154.241 33.0247 156.734 30.1704 156.734C27.3148 156.734 24.9912 154.241 24.9912 151.179L24.9925 104.874C24.9925 101.812 27.3161 99.319 30.1704 99.319L30.1704 99.3176ZM21.3629 148.908C19.3332 148.707 17.3993 148.155 15.5949 147.336L15.5962 127H11.9665V145.171C6.93484 141.373 3.63029 135.112 3.63029 128.026C3.63029 117.117 11.432 108.128 21.3632 107.144L21.3629 148.908ZM89.0113 7.78749C48.1485 7.78749 14.9076 43.4418 14.9076 87.2693V104.827C13.639 105.349 12.4287 105.988 11.2793 106.73V87.2681C11.2793 41.2968 46.1506 3.89342 89.0116 3.89342C131.866 3.89342 166.727 41.2933 166.727 87.2681V106.73C165.578 105.987 164.366 105.349 163.098 104.827V87.2693C163.099 43.4453 129.863 7.78749 89.0106 7.78749H89.0113ZM147.832 156.733C144.977 156.733 142.654 154.24 142.654 151.178V104.872C142.654 101.809 144.977 99.3162 147.833 99.3162C150.687 99.3162 153.011 101.809 153.011 104.872V151.178C153.011 154.24 150.687 156.733 147.833 156.733H147.832ZM167.32 144.112V126.999H163.69V146.706C161.538 147.887 159.157 148.656 156.638 148.906L156.639 107.144C166.571 108.13 174.372 117.119 174.372 128.026C174.372 134.489 171.619 140.263 167.32 144.113L167.32 144.112Z" fill="#FFE500"/>
<path d="M30.7735 60.8937C32.2518 57.1551 34.0576 53.5335 36.1429 50.1298L33.1113 47.9912C30.9055 51.5908 28.9948 55.4196 27.4324 59.3733L30.7735 60.8937Z" fill="#FFE500"/>
<path d="M89.0106 19.4667V15.5742C70.5178 15.5742 52.6679 23.9344 40.0422 38.5118L42.6998 41.1615C54.6424 27.3744 71.5224 19.4671 89.0104 19.4671L89.0106 19.4667Z" fill="#FFE500"/>
<path d="M167.243 51.6898L170.582 50.165C164.16 33.9754 153.672 20.0062 140.254 9.76465L138.15 12.9379C151.022 22.7617 161.083 36.1613 167.243 51.6887L167.243 51.6898Z" fill="#FFE500"/>
<path d="M132.647 4.56049C130.22 3.08149 127.702 1.71224 125.164 0.490234L123.679 4.04258C126.111 5.21328 128.527 6.52562 130.854 7.94504L132.647 4.56049Z" fill="#FFE500"/>
<path d="M69.9993 47.1143H73.6276V51.0068H69.9993V47.1143Z" fill="#FFE500"/>
<path d="M55.4814 47.1143H59.1097V51.0068H55.4814V47.1143Z" fill="#FFE500"/>
<path d="M62.7388 47.1143H66.3671V51.0068H62.7388V47.1143Z" fill="#FFE500"/>
<path d="M77.2566 47.1143H80.8849V51.0068H77.2566V47.1143Z" fill="#FFE500"/>
<path d="M84.5137 47.1143H86.256V51.0068H84.5137V47.1143Z" fill="#FFE500"/>
<path d="M126.132 62.9023H129.76V66.7948H126.132V62.9023Z" fill="#FFE500"/>
<path d="M104.36 62.9023H107.988V66.7948H104.36V62.9023Z" fill="#FFE500"/>
<path d="M118.875 62.9023H122.503V66.7948H118.875V62.9023Z" fill="#FFE500"/>
<path d="M111.617 62.9023H115.246V66.7948H111.617V62.9023Z" fill="#FFE500"/>
<path d="M97.103 62.9023H100.731V66.7948H97.103V62.9023Z" fill="#FFE500"/>
<path d="M111.617 31.4326H115.246V35.3251H111.617V31.4326Z" fill="#FFE500"/>
<path d="M97.103 31.4326H100.731V35.3251H97.103V31.4326Z" fill="#FFE500"/>
<path d="M118.875 31.4326H122.503V35.3251H118.875V31.4326Z" fill="#FFE500"/>
<path d="M104.36 31.4326H107.988V35.3251H104.36V31.4326Z" fill="#FFE500"/>
</svg>
