<svg width="167" height="177" viewBox="0 0 167 177" fill="none" xmlns="http://www.w3.org/2000/svg">
<path d="M0.226342 145.792L0.00108077 161.37C-0.0952645 168.902 6.2621 175.132 14.1829 175.26C63.4047 175.88 99.634 176.338 152.222 177H152.415C160.247 177 166.671 170.984 166.77 163.505L166.995 147.926C167.158 137.073 162.918 126.664 155.054 118.617C146.901 110.274 135.425 105.265 123.283 104.586C124.018 99.0353 123.452 93.3487 121.639 87.9522C123.015 86.2881 123.876 84.1959 123.922 81.8887C127.108 80.542 129.541 77.8526 130.613 74.5648H131.949C136.195 74.5648 139.647 71.1663 139.647 66.987C139.647 64.9595 138.846 63.0456 137.37 61.5771C135.905 60.1628 133.98 59.3848 131.949 59.3848H131.78V47.5399C131.78 21.3255 110.139 0 83.5383 0C56.925 0 35.2718 21.3259 35.2718 47.5399V59.3848H35.0466C33.0152 59.3848 31.0895 60.1628 29.5807 61.6217C28.1572 63.0791 27.3756 64.9878 27.3756 66.9884C27.3756 71.1677 30.8169 74.5662 35.0467 74.5662H36.4091C37.9697 79.3506 42.4627 82.8462 47.816 82.8462H47.9653C47.2298 84.2821 46.573 85.7585 46.0207 87.2779C44.1521 92.5202 43.5605 98.1193 44.1358 103.62C20.0342 104.826 0.541828 123.284 0.225703 145.793L0.226342 145.792ZM55.0758 26.1468C61.3764 20.5871 70.8372 17.7627 83.2471 17.7627H83.718C95.7165 17.6857 105.028 20.2454 111.355 25.2906C121.176 37.1694 119.148 49.4638 119.404 51.143C119.336 51.143 119.274 51.1308 119.206 51.1308H117.232C115.811 51.1308 114.671 51.5644 113.845 52.4167C112.824 53.4704 112.447 54.8995 112.345 57.0283C105.516 56.1219 99.5422 53.5095 94.973 49.3776C94.9648 49.3694 94.9567 49.364 94.9512 49.3586C90.5436 45.2807 87.3899 40.4572 85.8322 35.4079C85.7359 35.1013 85.6803 34.9176 85.5513 34.6893C85.2067 34.0815 84.5797 33.6803 83.8768 33.6236C83.1834 33.5884 82.4913 33.8653 82.0544 34.4124C81.8115 34.7136 81.7273 34.9662 81.5808 35.3822C79.8873 40.2745 74.9696 50.6162 62.9141 55.1493C62.8938 55.156 62.872 55.152 62.8517 55.1587C61.971 55.4761 61.0564 55.772 60.1458 56.0299C58.3668 56.5122 56.5038 56.858 54.6119 57.093V55.9003C54.6119 53.269 52.4366 51.1293 49.7634 51.1293H47.8174C47.7699 51.1293 47.7238 51.1442 47.6777 51.1455V47.5361C47.6777 39.4922 50.4552 32.09 55.0758 26.1468ZM70.2252 14.783C74.3462 13.1526 78.8324 12.2327 83.5385 12.2327C88.0438 12.2327 92.34 13.0905 96.3145 14.5884C92.5623 13.9171 88.4982 13.5538 84.0798 13.5538H83.7188C78.8119 13.5592 74.3233 13.9793 70.2252 14.783ZM78.6181 103.424C70.1001 99.0314 61.3747 90.8634 54.5856 78.3432C54.625 77.553 54.6128 61.6302 54.6114 61.3491C71.5915 59.6498 79.8462 48.9883 83.6512 41.312C85.6283 45.3388 88.4889 49.1263 92.0796 52.4476C92.0904 52.4557 92.1013 52.4666 92.1121 52.4747C92.1175 52.4801 92.123 52.4855 92.1257 52.4882C97.471 57.3251 104.437 60.3457 112.368 61.2883C112.382 61.68 112.394 62.069 112.41 62.4919V78.0433C112.41 78.3351 112.441 78.6241 112.492 78.9064C111.953 79.8884 111.401 80.8475 110.833 81.7835C109.687 83.6489 108.404 85.5348 107.026 87.3892H93.9117C92.6524 84.2825 88.7116 82.0564 83.8603 82.0564C77.9654 82.0564 73.3475 85.3212 73.3475 89.4896C73.3475 93.6554 77.9654 96.92 83.8603 96.92C88.706 96.92 92.6412 94.6994 93.9061 91.6007H103.636C103.006 92.3071 102.381 93.023 101.729 93.6849C95.7829 100.035 86.3649 107.466 78.6181 103.424ZM90.1403 89.5031C90.1213 91.02 87.444 92.7071 83.8602 92.7071C80.264 92.7071 77.5773 91.0078 77.5773 89.4868C77.5773 87.9659 80.2642 86.2639 83.8602 86.2639C87.4481 86.2639 90.1282 87.9578 90.1403 89.4761C90.1403 89.4815 90.1376 89.4868 90.1376 89.4923C90.139 89.4963 90.1403 89.5004 90.1403 89.5031ZM114.907 83.2532C115.553 84.3743 116.11 85.5373 116.625 86.7191C114.786 87.6794 113.489 87.3012 112.267 87.389C113.175 86.0531 114.061 84.685 114.907 83.2532ZM52.5086 83.3045C54.8833 87.3569 58.0192 91.5617 61.184 95.029V100.567C60.8895 101.544 60.5367 102.568 60.0278 103.662L48.3034 103.512C47.7335 98.529 48.3142 93.4365 50.005 88.6929C50.6822 86.8288 51.5194 85.0279 52.5086 83.3045ZM65.4124 101.237C65.5685 100.682 65.7028 100.15 65.8113 99.6432C67.9717 101.56 70.2336 103.262 72.5747 104.763C72.7036 104.846 72.8312 104.932 72.9587 105.013C80.7302 109.898 88.9359 111.522 101.65 99.7081C101.745 100.15 101.861 100.585 101.978 101.02V108.018C101.978 117.366 93.9419 125.191 83.6817 125.191C73.6074 125.191 65.4111 117.488 65.4111 108.018L65.4124 101.237ZM107.721 104.275C107.094 103.067 106.596 101.814 106.208 100.529V95.0709C107.222 93.966 108.205 92.807 109.165 91.5981C112.993 91.4374 115.027 92.0628 118.033 90.7255C119.318 95.2074 119.7 99.8701 119.038 104.424L107.721 104.275ZM119.55 82.9857C119.522 82.929 119.496 82.8709 119.467 82.8142C119.512 82.8128 119.555 82.802 119.6 82.8007C119.588 82.8655 119.565 82.9236 119.55 82.9857ZM119.207 78.6322H117.232C117.067 78.6322 116.951 78.5687 116.86 78.4809C116.798 78.3904 116.741 78.2958 116.677 78.2067C116.657 78.1567 116.664 78.0919 116.641 78.0459C117.287 64.6599 116.031 56.477 116.828 55.3843C116.828 55.3843 116.935 55.341 117.232 55.341H119.207C123.407 55.341 127.015 58.6977 127.015 63.0011V70.9436C127.015 75.181 123.513 78.6322 119.207 78.6322ZM134.402 64.5721C135.058 65.2245 135.419 66.0823 135.419 66.9846C135.419 68.8433 133.864 70.3534 131.949 70.3534H131.245V63.5914H131.949C132.874 63.5914 133.755 63.9467 134.402 64.5721ZM39.5022 47.5362C39.5022 23.6424 59.2572 4.20806 83.5409 4.20806C107.808 4.20806 127.552 23.6456 127.552 47.5362V54.4507C127.526 54.4264 127.493 54.4102 127.468 54.3859C126.344 53.3404 124.942 52.48 123.634 51.9734V47.5362C123.634 25.7483 105.65 8.02215 83.5418 8.02215C61.435 8.02215 43.4495 25.7483 43.4495 47.5362V51.9329C43.3939 51.9546 43.3478 51.9897 43.2921 52.0113C41.8361 52.5908 40.5347 53.4296 39.5035 54.3967L39.5022 47.5362ZM31.6046 66.983C31.6046 66.0807 31.9629 65.2176 32.5708 64.5935C33.2398 63.9465 34.1205 63.5899 35.0459 63.5899H35.7787V70.3519H35.0459C33.1502 70.3519 31.6046 68.8417 31.6046 66.983ZM40.0083 70.9407V62.9981C40.0083 62.1039 40.163 61.2407 40.4521 60.4384C42.6423 54.3275 49.3526 55.442 49.7639 55.3379C50.0882 55.3379 50.384 55.6067 50.384 55.8998L50.3935 59.3578C50.3935 59.374 50.384 59.3889 50.384 59.4064C50.365 72.1064 50.4017 77.4282 50.3759 78.0617C50.3705 78.0766 50.3745 78.0928 50.3705 78.1076C50.3582 78.1495 50.3392 78.1887 50.3297 78.2319C50.2714 78.471 50.0461 78.6317 49.7652 78.6317H47.8193C43.511 78.6317 40.0083 75.1806 40.0083 70.9407ZM46.4649 107.706L61.1814 107.903V108.016C61.1814 119.807 71.2749 129.399 83.6819 129.399C96.0386 129.399 105.933 120.041 106.183 108.463L120.786 108.661H121.094C132.889 108.809 144.164 113.506 152.022 121.549C159.095 128.788 162.912 138.133 162.766 147.862L162.541 163.444C162.471 168.624 157.943 172.787 152.413 172.787H152.276L134.694 172.565L134.693 141.542C134.693 140.381 133.745 139.438 132.578 139.438C131.411 139.438 130.464 140.381 130.464 141.542V172.511L36.9537 171.332V141.543C36.9537 140.381 36.0065 139.438 34.8395 139.438C33.6725 139.438 32.7253 140.381 32.7253 141.543V171.278L14.2445 171.046C8.65499 170.955 4.16219 166.636 4.23132 161.423L4.45658 145.848C4.74834 124.896 23.5971 107.786 46.4665 107.706L46.4649 107.706Z" fill="#FFE500"/>
</svg>
