<svg width="632" height="639" viewBox="0 0 632 639" fill="none" xmlns="http://www.w3.org/2000/svg">
<path d="M566.104 116.457C562.067 161.575 550.567 209.149 532.531 255.052C510.227 311.817 479.754 361.816 444.406 399.642L442.444 397.907C477.621 360.262 507.956 310.485 530.166 253.954C550.24 202.869 562.179 149.707 564.709 100.239L567.216 100.665C566.95 105.889 566.579 111.153 566.104 116.457Z" fill="#F2F2F2"/>
<path d="M582.181 378.493C532.532 458.619 472.298 515.869 412.572 539.696L411.364 537.449C470.676 513.786 530.558 456.83 579.98 377.07L582.181 378.493Z" fill="#F2F2F2"/>
<path d="M564.899 172.631C560.862 217.749 549.362 265.323 531.326 311.226C509.022 367.991 478.549 417.989 443.201 455.816L441.239 454.081C476.416 416.436 506.751 366.658 528.961 310.128C549.034 259.043 560.974 205.881 563.504 156.413L566.011 156.839C565.745 162.063 565.374 167.327 564.899 172.631Z" fill="#F2F2F2"/>
<path d="M632 637.961C632 638.097 631.976 638.233 631.929 638.359C631.882 638.485 631.813 638.6 631.726 638.696C631.639 638.793 631.535 638.87 631.421 638.922C631.307 638.974 631.185 639 631.062 639H34.7639C34.5151 639 34.2765 638.89 34.1005 638.696C33.9245 638.501 33.8257 638.236 33.8257 637.961C33.8257 637.685 33.9245 637.421 34.1005 637.226C34.2765 637.031 34.5151 636.922 34.7639 636.922H631.062C631.185 636.921 631.307 636.948 631.421 637C631.535 637.052 631.639 637.129 631.726 637.225C631.813 637.322 631.882 637.437 631.929 637.563C631.976 637.689 632 637.824 632 637.961Z" fill="#B5B0B0"/>
<path d="M325.062 243.072C335.81 243.072 344.523 234.233 344.523 223.33C344.523 212.427 335.81 203.589 325.062 203.589C314.314 203.589 305.601 212.427 305.601 223.33C305.601 234.233 314.314 243.072 325.062 243.072Z" fill="#07B52D"/>
<path d="M335.052 215.102C334.759 214.819 334.37 214.661 333.966 214.661C333.561 214.661 333.172 214.819 332.879 215.102C328.75 218.443 325.041 222.286 321.836 226.545C321.049 225.001 320.262 223.456 319.475 221.912C318.567 220.129 315.914 221.704 316.822 223.485C317.973 225.744 319.124 228.003 320.275 230.262C320.413 230.493 320.608 230.683 320.841 230.815C321.073 230.948 321.335 231.017 321.601 231.017C321.868 231.017 322.129 230.948 322.362 230.815C322.594 230.683 322.789 230.493 322.928 230.262C326.343 225.382 330.426 221.02 335.052 217.307C335.338 217.013 335.498 216.617 335.498 216.205C335.498 215.792 335.338 215.396 335.052 215.102Z" fill="white"/>
<path d="M237.983 279.31L208.636 232.558L242.619 214.097L251.538 249.766L314.383 284.215C316.864 283.309 319.551 283.155 322.117 283.772C324.683 284.389 327.017 285.749 328.833 287.688C330.65 289.627 331.871 292.06 332.348 294.691C332.825 297.321 332.537 300.036 331.52 302.504C330.502 304.972 328.799 307.086 326.617 308.588C324.436 310.091 321.87 310.917 319.234 310.966C316.597 311.015 314.004 310.285 311.769 308.865C309.535 307.445 307.756 305.395 306.65 302.967L237.983 279.31Z" fill="#A0616A"/>
<path d="M187.195 176.484C177.974 190.218 210.743 240.138 210.743 240.138C212.339 236.647 227.6 275.845 230.155 273.529C237.42 266.949 248.791 248.617 255.112 247.8C258.727 247.333 246.728 221.328 246.728 221.328C246.728 221.328 241.245 205.971 233.804 186.355C231.802 180.77 228.439 175.789 224.029 171.877C219.618 167.965 214.304 165.248 208.58 163.979C208.58 163.979 196.416 162.751 187.195 176.484Z" fill="#3F3D56"/>
<path d="M187.646 623.925L201.583 623.924L208.213 569.391L187.643 569.392L187.646 623.925Z" fill="#A0616A"/>
<path d="M184.09 619.309L188.013 619.309L203.329 612.99L211.538 619.308H211.539C216.178 619.308 220.627 621.177 223.907 624.505C227.187 627.832 229.031 632.345 229.031 637.051V637.628L184.091 637.63L184.09 619.309Z" fill="black"/>
<path d="M252.396 623.925L266.333 623.924L272.964 569.391L252.394 569.392L252.396 623.925Z" fill="#A0616A"/>
<path d="M248.841 619.309L252.764 619.309L268.08 612.99L276.289 619.308H276.29C280.929 619.308 285.378 621.177 288.658 624.505C291.938 627.832 293.782 632.345 293.782 637.051V637.628L248.842 637.63L248.841 619.309Z" fill="black"/>
<path d="M258.429 325.788L167.773 328.087C150.556 337.573 150.295 358.105 155.936 382.482C155.936 382.482 154.031 396.971 157.84 400.835C161.649 404.699 163.554 404.699 161.649 411.461C159.745 418.222 169.807 429.266 168.585 430.505C167.363 431.745 164.506 438.507 164.506 438.507L174.028 493.565C174.028 493.565 180.694 589.193 182.598 591.124C184.502 593.056 186.407 591.124 184.502 595.954C182.598 600.784 180.694 598.852 182.598 600.784C184.285 602.629 185.874 604.563 187.359 606.579H210.381C210.381 606.579 212.117 596.92 212.117 595.954C212.117 594.988 214.021 589.193 214.021 588.227C214.021 587.261 212.338 585.553 212.338 585.553C211.756 583.59 211.363 581.574 211.165 579.533C211.165 577.601 205.451 503.224 205.451 503.224L216.878 406.631L244.492 501.293C244.492 501.293 244.492 584.363 246.397 586.295C248.301 588.227 248.301 587.261 247.349 591.124C246.397 594.988 242.588 594.022 245.444 596.92C248.301 599.818 249.253 594.988 248.301 599.818L247.349 604.648L275.916 605.062C275.916 605.062 279.724 596.92 277.82 594.022C275.916 591.125 276.03 591.915 278.353 587.173C280.677 582.431 281.629 581.465 280.677 580.499C279.724 579.533 279.724 574.396 279.724 574.396L274.963 481.974C274.963 481.974 274.011 384.414 274.011 381.517C273.939 380.025 274.21 378.538 274.802 377.171V373.238L271.154 359.3L258.429 325.788Z" fill="#434343"/>
<path d="M203.971 134.57C219.527 134.57 232.138 121.777 232.138 105.997C232.138 90.2163 219.527 77.4238 203.971 77.4238C188.415 77.4238 175.804 90.2163 175.804 105.997C175.804 121.777 188.415 134.57 203.971 134.57Z" fill="#A0616A"/>
<path d="M218.054 153.454C224.123 157.113 227.753 163.837 229.836 170.679C233.694 183.347 236.017 196.444 236.752 209.681L238.953 249.311L266.211 333.694C242.587 353.972 153.788 338.303 153.788 338.303C153.788 338.303 151.062 337.381 153.788 334.616C156.514 331.851 159.167 334.3 156.441 331.535C153.716 328.77 155.595 331.851 156.503 329.086C157.412 326.32 156.503 328.164 155.595 327.242C154.686 326.32 162.629 318.025 162.629 318.025L155.36 269.588L146.274 171.888C157.177 158.062 179.105 149.912 179.105 149.912L184.771 139.566L213.101 141.865L218.054 153.454Z" fill="black"/>
<path d="M227.19 90.8164C229.38 92.4727 231.001 94.7838 231.828 97.4244C232.145 93.1092 232.165 88.7767 231.888 84.4587C231.556 81.4244 229.45 80.7418 227.012 79.951C224.81 79.2365 222.319 78.4293 221.649 75.4837C212.795 66.7462 197.382 67.1868 186.833 70.2346C181.029 71.9117 177.689 74.0665 177.39 75.3288L177.328 75.5887L177.093 75.7082C172.618 77.9775 171.748 85.1434 171.805 90.7552C171.914 101.328 175.513 113.336 177.54 114.312C177.648 114.363 177.675 114.343 177.721 114.304C180.774 111.829 184.498 114.492 186.135 115.94C187.1 109.368 190.209 103.315 194.963 98.7457C199.718 94.1766 205.845 91.3557 212.366 90.7333C214.495 90.5246 216.608 90.1652 218.688 89.658C219.743 89.381 220.828 89.2367 221.918 89.228C223.794 89.1991 225.634 89.7534 227.19 90.8164Z" fill="#10131C"/>
<path d="M402.049 348.556L456.232 292.741L470.507 248.101L447.535 238.676C436.155 250.32 424.44 285.967 424.44 285.967L387.458 336.316C387.163 336.428 386.869 336.545 386.579 336.685C384.876 337.5 383.409 338.747 382.321 340.306C381.232 341.864 380.558 343.681 380.364 345.581C380.17 347.481 380.462 349.399 381.213 351.151C381.963 352.903 383.147 354.429 384.648 355.581C386.15 356.733 387.919 357.473 389.785 357.729C391.651 357.985 393.55 357.749 395.3 357.042C397.049 356.336 398.589 355.184 399.772 353.697C400.954 352.211 401.738 350.44 402.049 348.556Z" fill="#FFB8B8"/>
<path d="M441.268 243.782L470.32 252.307L470.428 252.286C481.107 250.182 489.554 232.18 494.759 217.449C496.472 212.59 496.302 207.252 494.284 202.516C492.265 197.779 488.549 193.996 483.887 191.933C480.438 190.434 476.644 189.944 472.934 190.517C469.224 191.091 465.747 192.706 462.894 195.18L448.41 207.832L441.268 243.782Z" fill="#BC4612"/>
<path d="M416.412 622.267L400.788 622.266L393.356 561.135L416.414 561.136L416.412 622.267Z" fill="#FFB8B8"/>
<path d="M420.398 617.092L416 617.092L398.831 610.009L389.629 617.091H389.627C384.427 617.091 379.44 619.187 375.763 622.917C372.085 626.647 370.019 631.706 370.019 636.981V637.628L420.397 637.629L420.398 617.092Z" fill="black"/>
<path d="M485.738 622.267L470.114 622.266L462.682 561.135L485.741 561.136L485.738 622.267Z" fill="#FFB8B8"/>
<path d="M489.724 617.092L485.326 617.092L468.157 610.009L458.955 617.091H458.953C453.753 617.091 448.766 619.187 445.089 622.917C441.411 626.647 439.345 631.706 439.345 636.981V637.628L489.723 637.629L489.724 617.092Z" fill="black"/>
<path d="M509.562 358.952C509.562 358.952 511.386 381.16 506.825 402.442C502.264 423.724 502.264 483.663 502.264 483.663L492.23 600.461L462.128 597.685L453.919 402.442L424.729 468.14L427.465 477.393L423.82 479.706C423.82 479.706 426.553 497.75 424.729 497.75C422.904 497.75 418.343 500.526 418.343 500.526L421.992 595.834L390.978 594.909L380.032 460.737L391.89 383.936L392.802 369.13L396.907 369.302L398.997 363.116L402.836 352.475L509.562 358.952Z" fill="#4B2A19"/>
<path d="M511.138 363.616L511.301 363.384C519.984 351.053 506.925 321.422 504.955 317.127L513.251 314.396L511.383 298.288L510.498 291.107L516.838 284.676L516.856 284.515L520.505 252.129L525.81 230.618C527.809 222.487 527.638 213.962 525.316 205.919C522.994 197.876 518.604 190.605 512.596 184.852L500.333 173.123L485.43 150.754H461.397L453.157 166.543C445.168 168.416 438.079 173.073 433.127 179.702C428.174 186.332 425.671 194.513 426.054 202.822L427.922 244.233L420.61 295.792L420.606 305.123L412.378 314.399L414.175 323.512L407.913 326.234L405.148 339.322C404.004 340.854 396.451 351.069 396.451 353.862C396.451 354.281 396.756 354.687 397.411 355.136C402.558 358.672 431.007 365.88 443.598 360.769C457.01 355.329 510.324 363.489 510.861 363.573L511.138 363.616Z" fill="#0A0908"/>
<path d="M470.309 143.533C487.888 143.533 502.138 129.078 502.138 111.246C502.138 93.4144 487.888 78.959 470.309 78.959C452.731 78.959 438.48 93.4144 438.48 111.246C438.48 129.078 452.731 143.533 470.309 143.533Z" fill="#FFB8B8"/>
<path d="M467.26 144.056C472.189 144.005 477.105 143.526 481.954 142.626C486.755 141.505 497.347 133.197 500.233 128.289C502.378 124.642 503.665 119.001 504.367 114.912C505.316 109.5 505.133 103.946 503.831 98.6104C502.529 93.2746 500.137 88.2756 496.809 83.9373C495.526 82.1198 493.783 80.6878 491.764 79.7927C491.585 79.7272 491.402 79.6698 491.217 79.6215C488.29 78.9217 485.636 77.3505 483.596 75.1096C483.2 74.6559 482.772 74.2318 482.316 73.8405C480.027 71.9816 477.337 70.6986 474.466 70.0963C469.827 68.9663 463.192 70.3823 454.745 74.3086C450.501 76.2812 445.791 75.7309 442.161 75.031C441.957 74.9966 441.749 75.0169 441.555 75.0899C441.362 75.1628 441.19 75.2858 441.058 75.4467C439.56 76.9497 437.556 77.8215 435.449 77.8869C434.16 77.9782 432.852 79.8261 431.276 82.2325C430.918 82.7788 430.501 83.4163 430.198 83.8053L430.138 83.0747L429.429 83.9101C428.314 85.2231 427.545 86.8008 427.193 88.4965C426.841 90.1921 426.918 91.9505 427.417 93.6078C427.915 95.2652 428.819 96.7676 430.044 97.9752C431.269 99.1828 432.775 100.056 434.423 100.514C435.73 100.831 437.065 101.011 438.408 101.052C439.223 101.105 440.065 101.16 440.874 101.28C443.472 101.749 445.906 102.894 447.937 104.602C449.969 106.31 451.53 108.524 452.467 111.026C452.688 111.605 453.037 112.124 453.487 112.543C453.938 112.963 454.477 113.272 455.064 113.447C455.651 113.622 456.269 113.657 456.872 113.551C457.474 113.444 458.045 113.199 458.539 112.834C459.361 112.149 460.334 111.676 461.375 111.456C462.416 111.235 463.494 111.273 464.517 111.567C465.407 112.039 466.11 112.807 466.508 113.742C466.99 114.783 467.766 115.655 468.738 116.246C472.051 117.871 472.47 125.442 471.456 131.789C470.479 137.907 468.353 142.37 466.286 142.642C464.695 142.851 464.516 142.971 464.407 143.26L464.311 143.519L464.496 143.754C465.385 144.055 466.328 144.158 467.26 144.056Z" fill="#10131C"/>
<path d="M440.853 247.235L425.554 227.46C409.97 231.813 382.318 256.815 382.318 256.815L325.531 281.813C323.636 281.49 321.69 281.68 319.89 282.362C318.089 283.044 316.498 284.195 315.275 285.7C314.053 287.204 313.243 289.009 312.927 290.932C312.611 292.855 312.8 294.829 313.474 296.654C314.149 298.48 315.286 300.093 316.77 301.331C318.255 302.569 320.035 303.389 321.931 303.707C323.827 304.026 325.773 303.832 327.571 303.145C329.37 302.458 330.959 301.303 332.178 299.796L406.568 278.743L440.853 247.235Z" fill="#FFB8B8"/>
<path d="M437.186 251.756L461.327 224.458L462.667 205.116C462.916 201.317 462.114 197.524 460.349 194.164C458.585 190.805 455.93 188.012 452.683 186.103C448.265 183.545 443.054 182.785 438.105 183.975C433.155 185.165 428.835 188.218 426.019 192.515C417.489 205.556 408.313 223.187 413.035 233.127L413.083 233.228L437.186 251.756Z" fill="white"/>
<path d="M214.691 354.359L151.95 321.764C147.487 319.445 146.009 313.296 148.654 308.055L189.563 227.028C192.209 221.788 197.992 219.411 202.455 221.729L265.196 254.325C269.659 256.643 271.137 262.793 268.491 268.033L227.583 349.06C224.937 354.301 219.154 356.678 214.691 354.359Z" fill="#E6E6E6"/>
<path d="M203.971 339.374L161.344 317.229C157.164 315.057 155.779 309.298 158.257 304.39L192.243 237.074C194.721 232.166 200.138 229.94 204.317 232.111L255.802 258.859C259.982 261.03 261.366 266.79 258.888 271.698L240.425 308.267C229.388 330.129 222.589 349.047 203.971 339.374Z" fill="white"/>
<path d="M225.047 302.614L187.291 282.999C186.829 282.665 186.501 282.174 186.367 281.615C186.232 281.057 186.301 280.468 186.559 279.956C186.818 279.444 187.249 279.044 187.774 278.828C188.3 278.612 188.884 278.595 189.421 278.78L227.177 298.395C227.638 298.729 227.966 299.22 228.101 299.778C228.235 300.337 228.167 300.926 227.908 301.438C227.65 301.949 227.219 302.35 226.693 302.566C226.168 302.782 225.583 302.799 225.047 302.614Z" fill="#BC4612"/>
<path d="M191.699 295.81L183.082 291.334C182.621 291 182.293 290.509 182.159 289.95C182.024 289.392 182.093 288.803 182.351 288.291C182.609 287.779 183.041 287.379 183.566 287.163C184.091 286.947 184.676 286.93 185.213 287.115L193.829 291.591C194.29 291.925 194.618 292.416 194.753 292.974C194.887 293.533 194.819 294.122 194.56 294.634C194.302 295.146 193.871 295.546 193.345 295.762C192.82 295.978 192.235 295.995 191.699 295.81Z" fill="#BC4612"/>
<path d="M202.751 312.074L178.874 299.67C178.412 299.336 178.084 298.845 177.95 298.286C177.816 297.728 177.884 297.139 178.142 296.627C178.401 296.115 178.832 295.715 179.357 295.499C179.883 295.283 180.467 295.266 181.004 295.451L204.881 307.855C205.343 308.189 205.67 308.68 205.805 309.239C205.939 309.797 205.871 310.386 205.612 310.898C205.354 311.41 204.923 311.81 204.397 312.026C203.872 312.242 203.287 312.259 202.751 312.074V312.074Z" fill="#BC4612"/>
<path d="M239.988 273.02L202.232 253.405C201.77 253.071 201.442 252.58 201.308 252.022C201.173 251.463 201.242 250.874 201.5 250.362C201.758 249.85 202.19 249.45 202.715 249.234C203.24 249.018 203.825 249.001 204.362 249.186L242.118 268.801C242.579 269.135 242.907 269.626 243.042 270.184C243.176 270.743 243.108 271.332 242.849 271.844C242.591 272.356 242.16 272.756 241.634 272.972C241.109 273.188 240.524 273.205 239.988 273.02Z" fill="#BC4612"/>
<path d="M206.639 266.216L198.023 261.74C197.561 261.406 197.233 260.915 197.099 260.357C196.965 259.798 197.033 259.209 197.292 258.697C197.55 258.185 197.981 257.785 198.507 257.569C199.032 257.353 199.616 257.336 200.153 257.521L208.77 261.997C209.231 262.331 209.559 262.822 209.693 263.381C209.828 263.939 209.759 264.528 209.501 265.04C209.243 265.552 208.811 265.952 208.286 266.168C207.761 266.384 207.176 266.401 206.639 266.216Z" fill="#BC4612"/>
<path d="M217.692 282.481L193.815 270.076C193.353 269.742 193.025 269.251 192.891 268.693C192.757 268.134 192.825 267.545 193.083 267.033C193.342 266.521 193.773 266.121 194.298 265.905C194.824 265.689 195.408 265.672 195.945 265.857L219.822 278.261C220.283 278.595 220.611 279.086 220.746 279.645C220.88 280.203 220.812 280.793 220.553 281.304C220.295 281.816 219.864 282.217 219.338 282.433C218.813 282.648 218.228 282.666 217.692 282.481L217.692 282.481Z" fill="#BC4612"/>
<path d="M162.7 283.818L148.526 230.29L186.403 223.017L184.366 259.758L234.133 311.739C236.767 311.63 239.377 312.301 241.642 313.67C243.907 315.039 245.731 317.047 246.891 319.449C248.051 321.851 248.497 324.544 248.174 327.199C247.851 329.854 246.774 332.356 245.074 334.4C243.373 336.445 241.123 337.943 238.598 338.713C236.073 339.483 233.381 339.49 230.851 338.735C228.322 337.98 226.063 336.494 224.352 334.46C222.64 332.425 221.549 329.929 221.211 327.276L162.7 283.818Z" fill="#A0616A"/>
<path d="M144.65 170.274C131.793 180.57 148.295 238.161 148.295 238.161C150.85 235.317 153.819 277.353 156.941 275.921C165.817 271.853 182.084 257.826 188.356 258.969C191.942 259.623 188.185 231.164 188.185 231.164C188.185 231.164 187.494 214.847 186.195 193.87C185.936 187.933 184.201 182.158 181.15 177.084C178.099 172.01 173.833 167.802 168.748 164.85C168.748 164.85 157.507 159.978 144.65 170.274Z" fill="#3F3D56"/>
<path d="M358.575 402.626L324.337 386.226C323.605 385.877 322.96 385.364 322.451 384.727C321.942 384.089 321.582 383.343 321.398 382.544C321.212 381.762 321.203 380.948 321.372 380.163C321.541 379.377 321.883 378.641 322.373 378.008C332.29 365.151 339.1 350.115 342.257 334.106C342.495 332.88 343.146 331.776 344.097 330.982C345.048 330.188 346.241 329.753 347.473 329.752C364.934 329.812 377.985 336.28 386.26 348.973C386.696 349.633 386.985 350.382 387.107 351.167C387.229 351.953 387.18 352.755 386.965 353.52C382.173 370.273 374.882 386.183 365.345 400.698C364.637 401.795 363.561 402.595 362.316 402.95C361.071 403.304 359.742 403.189 358.575 402.626Z" fill="#E6E6E6"/>
<path d="M368.647 379.624L342.468 367.085C341.817 366.773 341.314 366.211 341.071 365.523C340.828 364.836 340.865 364.078 341.172 363.417C341.48 362.757 342.033 362.247 342.711 362C343.389 361.754 344.136 361.791 344.787 362.103L370.966 374.642C371.288 374.797 371.578 375.014 371.817 375.282C372.057 375.55 372.242 375.863 372.363 376.204C372.483 376.544 372.536 376.906 372.519 377.267C372.501 377.628 372.414 377.983 372.262 378.31C372.11 378.637 371.895 378.93 371.631 379.173C371.367 379.417 371.058 379.605 370.723 379.727C370.387 379.849 370.031 379.903 369.675 379.885C369.318 379.867 368.969 379.779 368.647 379.624H368.647Z" fill="white"/>
<path d="M372.713 370.888L346.535 358.348C345.884 358.036 345.381 357.475 345.138 356.787C344.895 356.099 344.931 355.342 345.239 354.681C345.546 354.02 346.1 353.511 346.778 353.264C347.456 353.018 348.203 353.054 348.854 353.366L375.032 365.906C375.684 366.218 376.186 366.78 376.429 367.467C376.672 368.155 376.636 368.913 376.329 369.573C376.021 370.234 375.467 370.744 374.789 370.99C374.111 371.237 373.365 371.2 372.713 370.888V370.888Z" fill="white"/>
<path d="M337.734 96.645L335.296 96.9157C324.431 53.6047 303.372 23.5992 274.392 10.1426C237.551 -6.96303 191.996 4.52375 146.118 42.4875C100.007 80.645 59.1866 140.917 31.1772 212.205L28.8127 211.107C56.9451 139.508 97.975 78.9448 144.344 40.5751C190.946 2.01151 237.431 -9.5595 275.236 7.99406C305.047 21.8362 326.658 52.4913 337.734 96.645Z" fill="#F2F2F2"/>
<path d="M68.8886 153.052C62.516 166.67 56.4545 180.778 50.8725 194.985C18.7509 276.738 2.473 360.229 3.8032 436.437L1.29269 436.165C-0.0388583 359.674 16.2859 275.895 48.5081 193.887C54.1061 179.641 60.1848 165.492 66.5758 151.836L68.8886 153.052Z" fill="#F2F2F2"/>
<path d="M67.6835 209.226C61.3109 222.844 55.2495 236.952 49.6675 251.159C17.5458 332.912 1.26789 416.403 2.59809 492.611L0.0876161 492.339C-1.24394 415.848 15.0808 332.069 47.303 250.061C52.9011 235.815 58.9797 221.666 65.3707 208.01L67.6835 209.226Z" fill="#F2F2F2"/>
</svg>
