<svg width="40" height="57" viewBox="0 0 40 57" fill="none" xmlns="http://www.w3.org/2000/svg">
<path d="M20 0.00878906C8.94286 0.00878906 0 8.8421 0 19.7638C0 34.58 20 56.4517 20 56.4517C20 56.4517 40 34.58 40 19.7638C40 8.8421 31.0571 0.00878906 20 0.00878906ZM20 26.8192C18.1056 26.8192 16.2888 26.0758 14.9492 24.7527C13.6097 23.4295 12.8571 21.635 12.8571 19.7638C12.8571 17.8926 13.6097 16.098 14.9492 14.7749C16.2888 13.4518 18.1056 12.7084 20 12.7084C21.8944 12.7084 23.7112 13.4518 25.0508 14.7749C26.3903 16.098 27.1429 17.8926 27.1429 19.7638C27.1429 21.635 26.3903 23.4295 25.0508 24.7527C23.7112 26.0758 21.8944 26.8192 20 26.8192Z" fill="#FFE501"/>
</svg>
