<svg width="61" height="61" viewBox="0 0 61 61" fill="none" xmlns="http://www.w3.org/2000/svg">
<path d="M30.5 0C22.2087 0 21.1754 0.0400363 17.9305 0.177303C14.6723 0.337448 12.4684 0.842668 10.5238 1.59764C8.48857 2.36599 6.64538 3.56898 5.12273 5.12273C3.56464 6.64182 2.36099 8.48603 1.59764 10.5238C0.842668 12.4684 0.337448 14.6723 0.177303 17.9305C0.0305038 21.1773 0 22.2087 0 30.5C0 38.7913 0.0400363 39.8246 0.177303 43.0695C0.337448 46.3181 0.842668 48.5316 1.59764 50.4762C2.36599 52.5114 3.56898 54.3546 5.12273 55.8773C6.64182 57.4354 8.48603 58.639 10.5238 59.4024C12.4684 60.1478 14.6819 60.6626 17.9305 60.8227C21.1773 60.9695 22.2087 61 30.5 61C38.7913 61 39.8246 60.96 43.0695 60.8227C46.3181 60.6626 48.5316 60.1459 50.4762 59.4024C52.5114 58.634 54.3546 57.431 55.8773 55.8773C57.4374 54.3598 58.6413 52.5151 59.4024 50.4762C60.1478 48.5316 60.6626 46.3181 60.8227 43.0695C60.9695 39.8227 61 38.7913 61 30.5C61 22.2087 60.96 21.1754 60.8227 17.9305C60.6626 14.6819 60.1459 12.457 59.4024 10.5238C58.634 8.48857 57.431 6.64538 55.8773 5.12273C54.3598 3.56263 52.5151 2.35867 50.4762 1.59764C48.5316 0.842668 46.3181 0.337448 43.0695 0.177303C39.8227 0.0305038 38.7913 0 30.5 0ZM30.5 5.49069C38.6426 5.49069 39.6149 5.53072 42.8331 5.66799C45.8015 5.80716 47.4182 6.30285 48.4915 6.72228C49.8185 7.2121 51.0195 7.99171 52.0071 9.00434C53.018 9.98776 53.7947 11.186 54.2796 12.5104C54.6991 13.5837 55.1947 15.2004 55.3339 18.1688C55.4712 21.387 55.5112 22.3612 55.5112 30.5019C55.5112 38.6426 55.4712 39.6168 55.3225 42.835C55.1623 45.8034 54.6666 47.4201 54.2491 48.4934C53.6715 49.9252 53.0271 50.9261 51.9632 52.009C50.9723 53.0153 49.7721 53.7911 48.4477 54.2815C47.3877 54.701 45.7481 55.1966 42.7683 55.3358C39.5329 55.4731 38.5797 55.5131 30.4161 55.5131C22.2525 55.5131 21.3012 55.4731 18.0621 55.3244C15.0937 55.1642 13.456 54.6686 12.3826 54.251C10.9337 53.6734 9.94043 53.029 8.87661 51.9652C7.80326 50.8918 7.12073 49.8699 6.59454 48.4496C6.16749 47.3896 5.67943 45.75 5.52119 42.7702C5.41252 39.573 5.36104 38.5816 5.36104 30.4562C5.36104 22.3345 5.41252 21.3412 5.52119 18.104C5.67943 15.1242 6.16749 13.4884 6.59454 12.4246C7.12073 10.9737 7.80516 9.98237 8.87661 8.90902C9.93852 7.84711 10.9337 7.16077 12.3826 6.62314C13.456 6.20562 15.0536 5.70993 18.0335 5.56123C21.2688 5.44493 22.222 5.40299 30.3742 5.40299L30.5 5.49069ZM30.5 14.8458C28.4436 14.8451 26.4071 15.2496 24.5071 16.0362C22.607 16.8228 20.8806 17.9761 19.4265 19.4303C17.9723 20.8844 16.819 22.6108 16.0324 24.5109C15.2458 26.4109 14.8413 28.4474 14.842 30.5038C14.8413 32.5603 15.2458 34.5967 16.0324 36.4968C16.819 38.3968 17.9723 40.1232 19.4265 41.5774C20.8806 43.0315 22.607 44.1848 24.5071 44.9714C26.4071 45.7581 28.4436 46.1626 30.5 46.1618C32.5564 46.1626 34.5929 45.7581 36.4929 44.9714C38.393 44.1848 40.1194 43.0315 41.5735 41.5774C43.0277 40.1232 44.181 38.3968 44.9676 36.4968C45.7542 34.5967 46.1587 32.5603 46.158 30.5038C46.1587 28.4474 45.7542 26.4109 44.9676 24.5109C44.181 22.6108 43.0277 20.8844 41.5735 19.4303C40.1194 17.9761 38.393 16.8228 36.4929 16.0362C34.5929 15.2496 32.5564 14.8451 30.5 14.8458ZM30.5 40.6711C24.8797 40.6711 20.3327 36.1241 20.3327 30.5038C20.3327 24.8835 24.8797 20.3365 30.5 20.3365C36.1203 20.3365 40.6673 24.8835 40.6673 30.5038C40.6673 36.1241 36.1203 40.6711 30.5 40.6711ZM50.4495 14.2205C50.4485 15.1922 50.0618 16.1237 49.3744 16.8104C48.6869 17.4971 47.755 17.8829 46.7833 17.8829C46.3029 17.8829 45.8271 17.7882 45.3833 17.6044C44.9394 17.4205 44.5361 17.151 44.1963 16.8113C43.8566 16.4716 43.5871 16.0683 43.4033 15.6244C43.2194 15.1805 43.1248 14.7048 43.1248 14.2243C43.1248 13.7439 43.2194 13.2681 43.4033 12.8242C43.5871 12.3804 43.8566 11.9771 44.1963 11.6373C44.5361 11.2976 44.9394 11.0281 45.3833 10.8442C45.8271 10.6604 46.3029 10.5658 46.7833 10.5658C48.7985 10.5658 50.4495 12.2053 50.4495 14.2205Z" fill="#FFE501"/>
</svg>
