<svg width="65" height="65" viewBox="0 0 65 65" fill="none" xmlns="http://www.w3.org/2000/svg">
<path d="M35.2083 21.6667C37.3632 21.6667 39.4298 22.5227 40.9536 24.0464C42.4773 25.5702 43.3333 27.6368 43.3333 29.7917C43.3333 30.51 43.6187 31.1988 44.1266 31.7067C44.6345 32.2147 45.3234 32.5 46.0417 32.5C46.76 32.5 47.4488 32.2147 47.9567 31.7067C48.4647 31.1988 48.75 30.51 48.75 29.7917C48.75 26.2002 47.3233 22.7558 44.7837 20.2163C42.2442 17.6767 38.7998 16.25 35.2083 16.25C34.49 16.25 33.8012 16.5353 33.2933 17.0433C32.7853 17.5512 32.5 18.24 32.5 18.9583C32.5 19.6766 32.7853 20.3655 33.2933 20.8734C33.8012 21.3813 34.49 21.6667 35.2083 21.6667Z" fill="#FFE501"/>
<path d="M35.2084 13.5798C40.2365 13.5798 45.0586 15.5771 48.614 19.1325C52.1694 22.6879 54.1668 27.51 54.1668 32.5381C54.1668 33.2564 54.4521 33.9453 54.96 34.4532C55.4679 34.9611 56.1568 35.2464 56.8751 35.2464C57.5934 35.2464 58.2823 34.9611 58.7902 34.4532C59.2981 33.9453 59.5834 33.2564 59.5834 32.5381C59.5834 26.0734 57.0153 19.8736 52.4441 15.3024C47.8729 10.7312 41.6731 8.16309 35.2084 8.16309C34.4901 8.16309 33.8012 8.44843 33.2933 8.95634C32.7854 9.46425 32.5001 10.1531 32.5001 10.8714C32.5001 11.5897 32.7854 12.2786 33.2933 12.7865C33.8012 13.2944 34.4901 13.5798 35.2084 13.5798ZM58.9063 45.836C58.7574 45.4012 58.5002 45.0115 58.1591 44.7035C57.8179 44.3956 57.404 44.1795 56.9563 44.0756L40.7063 40.3652C40.2652 40.2652 39.8061 40.2772 39.3709 40.4002C38.9357 40.5232 38.5382 40.7533 38.2147 41.0693C37.8355 41.4214 37.8084 41.4485 36.048 44.8068C30.2067 42.1152 25.5261 37.4154 22.8584 31.5631C26.298 29.8298 26.3251 29.8298 26.6772 29.4235C26.9933 29.1 27.2233 28.7025 27.3463 28.2673C27.4693 27.832 27.4813 27.3729 27.3813 26.9318L23.6709 10.8714C23.567 10.4237 23.3509 10.0098 23.043 9.66868C22.735 9.32754 22.3453 9.07038 21.9105 8.92142C21.278 8.69552 20.6249 8.53223 19.9605 8.43392C19.276 8.2752 18.5774 8.18448 17.8751 8.16309C14.5709 8.16309 11.4021 9.47566 9.06571 11.812C6.72932 14.1484 5.41675 17.3173 5.41675 20.6214C5.43108 31.6788 9.82994 42.2791 17.6487 50.0978C25.4674 57.9166 36.0677 62.3154 47.1251 62.3298C48.7611 62.3298 50.3812 62.0075 51.8927 61.3814C53.4042 60.7553 54.7776 59.8377 55.9345 58.6808C57.0913 57.5239 58.009 56.1505 58.6351 54.639C59.2612 53.1275 59.5834 51.5075 59.5834 49.8714C59.5843 49.1821 59.5299 48.4938 59.4209 47.8131C59.3071 47.1404 59.1349 46.4789 58.9063 45.836ZM47.1251 56.9131C37.5021 56.9059 28.2754 53.08 21.4709 46.2756C14.6665 39.4711 10.8406 30.2444 10.8334 20.6214C10.8405 18.7561 11.5847 16.9691 12.9038 15.6501C14.2228 14.3311 16.0097 13.5869 17.8751 13.5798H18.7688L21.6667 26.1464L20.2042 26.9048C17.8751 28.1235 16.0334 29.0985 17.0084 31.211C18.5961 35.7057 21.1651 39.7903 24.5287 43.168C27.8924 46.5457 31.9662 49.1317 36.4543 50.7381C38.7293 51.6589 39.623 49.9527 40.8418 47.5964L41.6272 46.1068L54.1668 48.9777V49.8714C54.1596 51.7368 53.4154 53.5237 52.0964 54.8428C50.7774 56.1618 48.9905 56.906 47.1251 56.9131Z" fill="#FFE501"/>
</svg>
