<svg width="45" height="30" viewBox="0 0 45 30" fill="none" xmlns="http://www.w3.org/2000/svg">
<path d="M38.1039 28.1851L22.479 10.8058L6.8541 28.1851C6.48127 28.5998 6.03866 28.9288 5.55153 29.1532C5.06441 29.3776 4.54231 29.4932 4.01505 29.4932C3.48778 29.4932 2.96568 29.3776 2.47855 29.1532C1.99143 28.9288 1.54881 28.5998 1.17598 28.1851C0.803147 27.7704 0.507405 27.2781 0.30563 26.7363C0.103855 26.1945 4.17117e-06 25.6138 4.22506e-06 25.0273C4.27895e-06 24.4408 0.103856 23.8601 0.30563 23.3183C0.507405 22.7765 0.803147 22.2842 1.17598 21.8695L19.6601 1.30992C20.0326 0.894682 20.4752 0.565246 20.9623 0.340473C21.4495 0.1157 21.9717 1.89936e-06 22.4992 1.94323e-06C23.0266 1.98709e-06 23.5488 0.1157 24.036 0.340473C24.5231 0.565247 24.9657 0.894682 25.3382 1.30992L43.8223 21.8695C44.1956 22.2839 44.4918 22.7761 44.6939 23.3179C44.896 23.8598 45 24.4407 45 25.0273C45 25.6139 44.896 26.1948 44.6939 26.7367C44.4918 27.2785 44.1956 27.7708 43.8223 28.1851C42.2518 29.8872 39.6745 29.932 38.1039 28.1851Z" fill="#00659E"/>
</svg>
