<svg width="45" height="31" viewBox="0 0 45 31" fill="none" xmlns="http://www.w3.org/2000/svg">
<path d="M6.89608 1.37485L22.521 19.6421L38.1459 1.37485C38.5187 0.938968 38.9613 0.593211 39.4485 0.357315C39.9356 0.121418 40.4577 4.59276e-09 40.985 0C41.5122 -4.59273e-09 42.0343 0.121418 42.5215 0.357315C43.0086 0.593211 43.4512 0.938968 43.824 1.37485C44.1969 1.81073 44.4926 2.32819 44.6944 2.8977C44.8961 3.46721 45 4.0776 45 4.69402C45 5.31045 44.8961 5.92084 44.6944 6.49035C44.4926 7.05985 44.1969 7.57732 43.824 8.0132L25.3399 29.6232C24.9674 30.0596 24.5248 30.4059 24.0377 30.6421C23.5505 30.8784 23.0283 31 22.5009 31C21.9734 31 21.4512 30.8784 20.964 30.6421C20.4769 30.4059 20.0343 30.0596 19.6618 29.6232L1.17768 8.0132C0.804362 7.57764 0.508183 7.06028 0.3061 6.49073C0.104017 5.92118 0 5.31063 0 4.69402C0 4.07742 0.104017 3.46687 0.3061 2.89732C0.508183 2.32777 0.804362 1.81041 1.17768 1.37485C2.74823 -0.414211 5.32553 -0.461291 6.89608 1.37485Z" fill="#929292"/>
</svg>
