<svg width="52" height="39" viewBox="0 0 52 39" fill="none" xmlns="http://www.w3.org/2000/svg">
<path d="M51.4922 11.8035C51.6658 11.6184 51.8007 11.3943 51.8878 11.1465C51.9749 10.8987 52.012 10.6331 51.9966 10.368C51.9812 10.1029 51.9136 9.84468 51.7985 9.61104C51.6834 9.3774 51.5235 9.17392 51.3299 9.01461C43.9698 3.14112 35.1007 -0.0154081 26.001 5.6554e-05C16.5384 5.6554e-05 7.78361 3.34215 0.672036 9.01461C0.478176 9.17363 0.318026 9.37688 0.202621 9.61038C0.0872167 9.84387 0.0192996 10.102 0.00354956 10.3671C-0.0122005 10.6322 0.0245908 10.8979 0.111389 11.1458C0.198187 11.3938 0.332928 11.6182 0.50633 11.8035C0.808037 12.1297 1.20542 12.3277 1.62772 12.3624C2.05001 12.3971 2.46983 12.2662 2.81241 11.9929C9.56199 6.6463 17.6772 3.77528 26.001 3.78928C34.6557 3.78928 42.6648 6.82823 49.1861 11.9891C49.8938 12.5499 50.8777 12.4817 51.4922 11.8035Z" fill="#FFE500"/>
<path d="M43.3932 20.9239C43.5685 20.7548 43.7038 20.5489 43.7895 20.3209C43.8751 20.093 43.9089 19.8489 43.8884 19.6063C43.8679 19.3636 43.7936 19.1286 43.6709 18.9183C43.5481 18.708 43.3801 18.5277 43.179 18.3905C37.9503 14.994 31.8468 13.191 25.6117 13.2012C19.1336 13.2012 13.0976 15.1055 8.04437 18.3905C7.84221 18.5269 7.6732 18.7069 7.54975 18.9172C7.4263 19.1276 7.35155 19.3629 7.331 19.6059C7.31045 19.8489 7.34462 20.0935 7.43099 20.3216C7.51737 20.5496 7.65376 20.7555 7.83013 20.9239C8.11988 21.2067 8.49713 21.3826 8.9 21.4228C9.30288 21.4629 9.70744 21.365 10.0473 21.1449C14.6926 18.1696 20.0953 16.5926 25.6117 16.6018C31.1269 16.5933 36.5284 18.1703 41.1727 21.1449C41.8732 21.5938 42.805 21.5122 43.3932 20.9239ZM35.9698 28.3473C36.7383 27.5788 36.5989 26.29 35.6298 25.7969C32.5267 24.2178 29.0934 23.3974 25.6117 23.4029C22.0071 23.4029 18.5997 24.2667 15.5936 25.7969C14.6245 26.29 14.485 27.5788 15.2536 28.3473L15.3046 28.3983C15.8487 28.9424 16.6886 29.0444 17.3823 28.7044C19.9437 27.449 22.7592 26.7987 25.6117 26.8035C28.5634 26.8035 31.3586 27.487 33.8411 28.7078C34.5314 29.0479 35.3713 28.9458 35.9154 28.3983L35.9698 28.3473ZM29.2163 35.1009C29.8828 34.4343 29.8896 33.3326 29.0803 32.8565C28.0311 32.232 26.8326 31.903 25.6117 31.9043C24.3908 31.903 23.1922 32.232 22.1431 32.8565C21.3338 33.3326 21.3406 34.4343 22.0071 35.1009L24.4079 37.5017C24.7267 37.8204 25.1591 37.9995 25.61 37.9995C26.0608 37.9995 26.4932 37.8204 26.8121 37.5017L29.2163 35.0975V35.1009Z" fill="#FFE500"/>
</svg>
