<svg width="49" height="41" viewBox="0 0 49 41" fill="none" xmlns="http://www.w3.org/2000/svg">
<path d="M45.5897 5.70215H3.41026C2.07911 5.70215 1 6.71261 1 7.95909V37.2993C1 38.5458 2.07911 39.5562 3.41026 39.5562H45.5897C46.9209 39.5562 48 38.5458 48 37.2993V7.95909C48 6.71261 46.9209 5.70215 45.5897 5.70215Z" stroke="#FFE500" stroke-width="2" stroke-linecap="round" stroke-linejoin="round"/>
<path d="M41.8227 10.4043H7.17726C6.52708 10.4043 6 10.9019 6 11.5157V33.7431C6 34.3569 6.52708 34.8545 7.17726 34.8545H41.8227C42.4729 34.8545 43 34.3569 43 33.7431V11.5157C43 10.9019 42.4729 10.4043 41.8227 10.4043Z" stroke="#FFE500" stroke-width="2" stroke-linecap="round" stroke-linejoin="round"/>
<path d="M14 16.3767H22.7549M18.3769 29.2118V16.3767M35 16.3767L30.6231 29.2118L26.2463 16.3767M28.4005 1L24.8042 5.61358L22.7549 2.2519" stroke="#FFE500" stroke-width="2" stroke-linecap="round" stroke-linejoin="round"/>
</svg>
