<svg width="34" height="57" viewBox="0 0 34 57" fill="none" xmlns="http://www.w3.org/2000/svg">
<path d="M28.3699 56.4463C28.3699 56.4463 33.4529 56.4463 33.4529 51.3556V5.53699C33.4529 0.446289 28.3699 0.446289 28.3699 0.446289H5.49615C5.49615 0.446289 0.413086 0.446289 0.413086 5.53699V51.3556C0.413086 56.4463 5.49615 56.4463 5.49615 56.4463H28.3699ZM16.933 54.3266C15.5301 54.3266 14.3915 53.188 14.3915 51.7851C14.3915 50.3822 15.5301 49.2436 16.933 49.2436C18.3359 49.2436 19.4746 50.3822 19.4746 51.7851C19.4746 53.188 18.336 54.3266 16.933 54.3266ZM10.5792 3.54948C10.5792 3.23434 10.8309 2.98778 11.1409 2.98778H22.7227C23.0328 2.98778 23.2869 3.23943 23.2869 3.54948V3.69945C23.2869 4.01714 23.0352 4.26115 22.7253 4.26115H11.1409C10.8334 4.26115 10.5792 4.0095 10.5792 3.69945V3.54948ZM2.95465 6.8001H30.9114V47.4645H2.95465V6.8001Z" fill="#FEF212"/>
</svg>
