<svg width="51" height="37" viewBox="0 0 51 37" fill="none" xmlns="http://www.w3.org/2000/svg">
<path d="M49.0529 11.0225C49.0387 9.01057 48.4243 7.04867 47.2884 5.38802C46.1525 3.72736 44.5468 2.44353 42.6769 1.70092C40.807 0.958306 38.758 0.790712 36.7923 1.2196C34.8266 1.64848 33.0336 2.65432 31.6429 4.10832H19.7456C18.3549 2.65432 16.5619 1.64848 14.5962 1.2196C12.6305 0.790712 10.5815 0.958306 8.71156 1.70092C6.84165 2.44353 5.23594 3.72736 4.10004 5.38802C2.96415 7.04867 2.34977 9.01057 2.33557 11.0225C1.36399 17.2525 0.84356 23.5446 0.77832 29.8496C0.77832 33.6181 2.33557 36.0786 5.32548 36.6392C5.87892 36.7525 6.44237 36.8099 7.0073 36.8105C8.34394 36.8353 9.6514 36.4183 10.7269 35.6244C11.8025 34.8304 12.586 33.7037 12.956 32.419C13.5633 30.7061 14.6534 28.3391 15.323 26.9064C16.1507 27.2832 17.051 27.4741 17.9604 27.4658C18.8698 27.4576 19.7664 27.2502 20.5872 26.8584C21.4079 26.4666 22.1329 25.8998 22.7112 25.1978C23.2895 24.4959 23.7071 23.6758 23.9346 22.7953H27.4539C27.6819 23.6738 28.0991 24.4919 28.6763 25.1923C29.2536 25.8928 29.9769 26.4586 30.7957 26.8502C31.6145 27.2418 32.509 27.4497 33.4166 27.4594C34.3242 27.4691 35.2229 27.2804 36.0499 26.9064C36.7195 28.3235 37.8096 30.6905 38.4169 32.419C38.7876 33.7063 39.5735 34.8349 40.6522 35.6292C41.7309 36.4234 43.0419 36.8387 44.3812 36.8105C44.9513 36.8111 45.5201 36.7537 46.0786 36.6392C49.0529 36.0318 50.6102 33.6181 50.6102 29.8496C50.5449 23.5446 50.0245 17.2525 49.0529 11.0225ZM11.5077 31.9052C11.3399 32.5056 11.0535 33.0664 10.6655 33.5544C10.2775 34.0425 9.79578 34.4479 9.24866 34.7469C8.70154 35.0458 8.10011 35.2322 7.47982 35.2951C6.85953 35.358 6.23292 35.2961 5.63693 35.1131C2.91175 34.5369 2.33557 31.9363 2.33557 29.8496C2.37295 25.0177 2.69534 20.1923 3.30106 15.3984C4.05718 17.0251 5.23078 18.4224 6.70241 19.4482C8.17405 20.474 9.89118 21.0915 11.679 21.238C11.6819 22.1685 11.8933 23.0865 12.2975 23.9246C12.7017 24.7626 13.2886 25.4995 14.0149 26.0811C13.2363 27.6694 12.1462 30.0832 11.5077 31.9052ZM17.908 25.9098C16.669 25.9098 15.4807 25.4176 14.6046 24.5414C13.7285 23.6653 13.2363 22.477 13.2363 21.238C13.2197 21.0151 13.2197 20.7913 13.2363 20.5684V19.6808H12.4577C10.5479 19.6808 8.69287 19.0426 7.18741 17.8675C5.68195 16.6924 4.61242 15.0479 4.14878 13.1952C3.68515 11.3426 3.854 9.38812 4.62851 7.64244C5.40303 5.89676 6.73876 4.46003 8.42345 3.56054C10.1081 2.66106 12.0451 2.35043 13.9266 2.67803C15.8081 3.00563 17.5261 3.95266 18.8076 5.36862C20.0891 6.78459 20.8607 8.58824 20.9996 10.493C21.1385 12.3977 20.6368 14.2942 19.5743 15.8811L19.076 16.5663L19.9013 16.9556C20.8963 17.3883 21.7097 18.1538 22.2019 19.1208C22.694 20.0877 22.8343 21.1959 22.5985 22.255C22.3628 23.3141 21.7657 24.2581 20.9098 24.925C20.0539 25.5919 18.9926 25.94 17.908 25.9098ZM24.137 21.238C24.136 20.2013 23.8763 19.1812 23.3814 18.2703C22.8865 17.3593 22.172 16.5863 21.3028 16.0213C22.1965 14.431 22.6423 12.6282 22.593 10.8047C22.5436 8.98119 22.0009 7.20517 21.0225 5.66557H30.366C29.378 7.19947 28.8244 8.97254 28.7641 10.7961C28.7037 12.6196 29.139 14.4254 30.0234 16.0213C29.1657 16.5935 28.4635 17.3696 27.9797 18.2801C27.4959 19.1906 27.2457 20.207 27.2515 21.238H24.137ZM28.8087 21.238C28.8111 20.3515 29.0656 19.4839 29.5427 18.7366C30.0197 17.9893 30.6996 17.3932 31.5028 17.0179L32.3125 16.5663L31.8142 15.8188C30.7671 14.225 30.2818 12.3273 30.4353 10.4265C30.5889 8.52566 31.3724 6.73043 32.6617 5.32531C33.951 3.92019 35.6724 2.98555 37.553 2.66952C39.4337 2.35348 41.366 2.67413 43.0438 3.58064C44.7215 4.48715 46.0488 5.92767 46.8152 7.67391C47.5816 9.42015 47.7432 11.3722 47.2746 13.2207C46.8059 15.0693 45.7338 16.7085 44.228 17.8787C42.7222 19.0489 40.869 19.6831 38.962 19.6808H37.9653L38.1522 20.5684C38.1688 20.7913 38.1688 21.0151 38.1522 21.238C38.1522 22.477 37.66 23.6653 36.7839 24.5414C35.9078 25.4176 34.7195 25.9098 33.4805 25.9098C32.2414 25.9098 31.0532 25.4176 30.1771 24.5414C29.3009 23.6653 28.8087 22.477 28.8087 21.238ZM45.7516 35.1131C45.1556 35.2961 44.529 35.358 43.9087 35.2951C43.2884 35.2322 42.6869 35.0458 42.1398 34.7469C41.5927 34.4479 41.111 34.0425 40.723 33.5544C40.335 33.0664 40.0486 32.5056 39.8807 31.9052C39.2423 30.0832 38.1522 27.6694 37.3736 26.0811C38.0999 25.4995 38.6868 24.7626 39.091 23.9246C39.4952 23.0865 39.7065 22.1685 39.7094 21.238C41.4945 21.096 43.2101 20.4838 44.6817 19.4635C46.1533 18.4432 47.3284 17.0514 48.0874 15.4295C48.6916 20.2131 49.014 25.0281 49.0529 29.8496C49.0529 31.9363 48.4767 34.5369 45.7516 35.1131Z" fill="#FEF212"/>
<path d="M14.7936 13.4513H17.908V8.77953H14.7936V5.66504H10.1218V8.77953H7.00732V13.4513H10.1218V16.5658H14.7936V13.4513ZM13.2363 15.0085H11.6791V11.894H8.56457V10.3368H11.6791V7.22228H13.2363V10.3368H16.3508V11.894H13.2363V15.0085Z" fill="#FEF212"/>
<path d="M38.9308 8.78014C39.3928 8.78014 39.8444 8.64314 40.2286 8.38647C40.6127 8.1298 40.9121 7.76499 41.0889 7.33817C41.2657 6.91134 41.312 6.44168 41.2218 5.98856C41.1317 5.53545 40.9092 5.11924 40.5825 4.79256C40.2559 4.46588 39.8397 4.24341 39.3865 4.15328C38.9334 4.06315 38.4638 4.10941 38.0369 4.28621C37.6101 4.463 37.2453 4.7624 36.9886 5.14653C36.732 5.53066 36.595 5.98228 36.595 6.44427C36.595 7.06378 36.8411 7.65792 37.2791 8.09598C37.7172 8.53404 38.3113 8.78014 38.9308 8.78014ZM38.9308 5.66565C39.0848 5.66565 39.2354 5.71131 39.3634 5.79687C39.4915 5.88242 39.5913 6.00403 39.6502 6.1463C39.7091 6.28858 39.7245 6.44513 39.6945 6.59617C39.6645 6.74721 39.5903 6.88595 39.4814 6.99484C39.3725 7.10373 39.2338 7.17789 39.0827 7.20793C38.9317 7.23797 38.7751 7.22255 38.6329 7.16362C38.4906 7.10469 38.369 7.00489 38.2834 6.87685C38.1979 6.7488 38.1522 6.59826 38.1522 6.44427C38.1522 6.23776 38.2342 6.03972 38.3803 5.8937C38.5263 5.74768 38.7243 5.66565 38.9308 5.66565Z" fill="#FEF212"/>
<path d="M38.9308 18.1229C39.3928 18.1229 39.8444 17.9859 40.2286 17.7292C40.6127 17.4726 40.9121 17.1078 41.0889 16.6809C41.2657 16.2541 41.312 15.7844 41.2218 15.3313C41.1317 14.8782 40.9092 14.462 40.5825 14.1353C40.2559 13.8087 39.8397 13.5862 39.3865 13.4961C38.9334 13.4059 38.4638 13.4522 38.0369 13.629C37.6101 13.8058 37.2453 14.1052 36.9886 14.4893C36.732 14.8734 36.595 15.3251 36.595 15.787C36.595 16.4066 36.8411 17.0007 37.2791 17.4387C37.7172 17.8768 38.3113 18.1229 38.9308 18.1229ZM38.9308 15.0084C39.0848 15.0084 39.2354 15.0541 39.3634 15.1396C39.4915 15.2252 39.5913 15.3468 39.6502 15.4891C39.7091 15.6314 39.7245 15.7879 39.6945 15.9389C39.6645 16.09 39.5903 16.2287 39.4814 16.3376C39.3725 16.4465 39.2338 16.5207 39.0827 16.5507C38.9317 16.5807 38.7751 16.5653 38.6329 16.5064C38.4906 16.4475 38.369 16.3477 38.2834 16.2196C38.1979 16.0916 38.1522 15.941 38.1522 15.787C38.1522 15.5805 38.2342 15.3825 38.3803 15.2365C38.5263 15.0905 38.7243 15.0084 38.9308 15.0084Z" fill="#FEF212"/>
<path d="M34.2592 13.452C34.7212 13.452 35.1728 13.315 35.5569 13.0583C35.9411 12.8017 36.2405 12.4369 36.4173 12.01C36.5941 11.5832 36.6403 11.1136 36.5502 10.6604C36.4601 10.2073 36.2376 9.79111 35.9109 9.46443C35.5842 9.13776 35.168 8.91529 34.7149 8.82516C34.2618 8.73503 33.7921 8.78129 33.3653 8.95808C32.9385 9.13488 32.5737 9.43427 32.317 9.8184C32.0603 10.2025 31.9233 10.6542 31.9233 11.1161C31.9233 11.7357 32.1694 12.3298 32.6075 12.7679C33.0456 13.2059 33.6397 13.452 34.2592 13.452ZM34.2592 10.3375C34.4132 10.3375 34.5637 10.3832 34.6918 10.4687C34.8198 10.5543 34.9196 10.6759 34.9786 10.8182C35.0375 10.9605 35.0529 11.117 35.0229 11.268C34.9928 11.4191 34.9187 11.5578 34.8098 11.6667C34.7009 11.7756 34.5621 11.8498 34.4111 11.8798C34.2601 11.9098 34.1035 11.8944 33.9612 11.8355C33.819 11.7766 33.6974 11.6768 33.6118 11.5487C33.5262 11.4207 33.4806 11.2701 33.4806 11.1161C33.4806 10.9096 33.5626 10.7116 33.7086 10.5656C33.8547 10.4196 34.0527 10.3375 34.2592 10.3375Z" fill="#FEF212"/>
<path d="M43.6025 13.452C44.0645 13.452 44.5161 13.315 44.9002 13.0583C45.2843 12.8017 45.5837 12.4369 45.7605 12.01C45.9373 11.5832 45.9836 11.1136 45.8935 10.6604C45.8033 10.2073 45.5809 9.79111 45.2542 9.46443C44.9275 9.13776 44.5113 8.91529 44.0582 8.82516C43.6051 8.73503 43.1354 8.78129 42.7086 8.95808C42.2817 9.13488 41.9169 9.43427 41.6603 9.8184C41.4036 10.2025 41.2666 10.6542 41.2666 11.1161C41.2666 11.7357 41.5127 12.3298 41.9508 12.7679C42.3888 13.2059 42.983 13.452 43.6025 13.452ZM43.6025 10.3375C43.7565 10.3375 43.907 10.3832 44.035 10.4687C44.1631 10.5543 44.2629 10.6759 44.3218 10.8182C44.3808 10.9605 44.3962 11.117 44.3661 11.268C44.3361 11.4191 44.2619 11.5578 44.153 11.6667C44.0441 11.7756 43.9054 11.8498 43.7544 11.8798C43.6033 11.9098 43.4468 11.8944 43.3045 11.8355C43.1622 11.7766 43.0406 11.6768 42.9551 11.5487C42.8695 11.4207 42.8238 11.2701 42.8238 11.1161C42.8238 10.9096 42.9059 10.7116 43.0519 10.5656C43.1979 10.4196 43.396 10.3375 43.6025 10.3375Z" fill="#FEF212"/>
<path d="M17.9079 18.123C17.292 18.123 16.6898 18.3057 16.1776 18.6479C15.6655 18.9902 15.2663 19.4766 15.0305 20.0457C14.7948 20.6148 14.7331 21.241 14.8533 21.8451C14.9735 22.4493 15.2701 23.0042 15.7057 23.4398C16.1412 23.8754 16.6962 24.172 17.3003 24.2922C17.9045 24.4124 18.5307 24.3507 19.0998 24.115C19.6689 23.8792 20.1553 23.48 20.4976 22.9679C20.8398 22.4557 21.0224 21.8535 21.0224 21.2375C21.0224 20.4115 20.6943 19.6193 20.1102 19.0353C19.5261 18.4512 18.734 18.123 17.9079 18.123ZM17.9079 22.7948C17.6 22.7948 17.2989 22.7035 17.0428 22.5323C16.7867 22.3612 16.5871 22.118 16.4692 21.8335C16.3514 21.5489 16.3205 21.2358 16.3806 20.9337C16.4407 20.6317 16.589 20.3542 16.8068 20.1364C17.0246 19.9186 17.3021 19.7703 17.6041 19.7102C17.9062 19.6501 18.2193 19.681 18.5039 19.7988C18.7884 19.9167 19.0316 20.1163 19.2028 20.3724C19.3739 20.6285 19.4652 20.9295 19.4652 21.2375C19.4652 21.6505 19.3011 22.0466 19.0091 22.3387C18.717 22.6307 18.321 22.7948 17.9079 22.7948Z" fill="#FEF212"/>
<path d="M33.4805 18.123C32.8645 18.123 32.2623 18.3057 31.7501 18.6479C31.238 18.9902 30.8388 19.4766 30.603 20.0457C30.3673 20.6148 30.3056 21.241 30.4258 21.8451C30.546 22.4493 30.8426 23.0042 31.2782 23.4398C31.7138 23.8754 32.2687 24.172 32.8729 24.2922C33.477 24.4124 34.1032 24.3507 34.6723 24.115C35.2414 23.8792 35.7278 23.48 36.0701 22.9679C36.4123 22.4557 36.595 21.8535 36.595 21.2375C36.595 20.4115 36.2668 19.6193 35.6827 19.0353C35.0987 18.4512 34.3065 18.123 33.4805 18.123ZM33.4805 22.7948C33.1725 22.7948 32.8714 22.7035 32.6153 22.5323C32.3592 22.3612 32.1596 22.118 32.0418 21.8335C31.9239 21.5489 31.893 21.2358 31.9531 20.9337C32.0132 20.6317 32.1615 20.3542 32.3793 20.1364C32.5971 19.9186 32.8746 19.7703 33.1767 19.7102C33.4787 19.6501 33.7918 19.681 34.0764 19.7988C34.3609 19.9167 34.6042 20.1163 34.7753 20.3724C34.9464 20.6285 35.0377 20.9295 35.0377 21.2375C35.0377 21.6505 34.8736 22.0466 34.5816 22.3387C34.2896 22.6307 33.8935 22.7948 33.4805 22.7948Z" fill="#FEF212"/>
</svg>
