<svg width="50" height="38" viewBox="0 0 50 38" fill="none" xmlns="http://www.w3.org/2000/svg">
<path d="M23.118 28.5907V10.089H19.4571V17.6143H11.6789V10.0859H8.01807V28.5907H11.6789V20.6645H19.4571V28.5907H23.118ZM26.5229 10.089V28.5907H33.2709C38.8563 28.5907 41.5518 25.1766 41.5518 19.2921C41.5518 13.4507 38.8995 10.089 33.274 10.089H26.5229ZM30.1837 13.0714H32.7836C36.2132 13.0714 37.7861 15.1871 37.7861 19.363C37.7861 23.5358 36.2286 25.5929 32.7836 25.5929H30.1837V13.0714Z" fill="#FEF212"/>
<path d="M43.4857 3.91812C44.3037 3.91812 45.0881 4.24305 45.6665 4.82144C46.2449 5.39982 46.5698 6.18428 46.5698 7.00225V31.6753C46.5698 32.4933 46.2449 33.2777 45.6665 33.8561C45.0881 34.4345 44.3037 34.7594 43.4857 34.7594H6.47612C5.65816 34.7594 4.8737 34.4345 4.29531 33.8561C3.71693 33.2777 3.39199 32.4933 3.39199 31.6753V7.00225C3.39199 6.18428 3.71693 5.39982 4.29531 4.82144C4.8737 4.24305 5.65816 3.91812 6.47612 3.91812H43.4857ZM6.47612 0.833984C4.8402 0.833984 3.27128 1.48385 2.1145 2.64063C0.95773 3.7974 0.307861 5.36632 0.307861 7.00225L0.307861 31.6753C0.307861 33.3112 0.95773 34.8801 2.1145 36.0369C3.27128 37.1937 4.8402 37.8436 6.47612 37.8436H43.4857C45.1216 37.8436 46.6905 37.1937 47.8473 36.0369C49.0041 34.8801 49.654 33.3112 49.654 31.6753V7.00225C49.654 5.36632 49.0041 3.7974 47.8473 2.64063C46.6905 1.48385 45.1216 0.833984 43.4857 0.833984H6.47612Z" fill="#FEF212"/>
</svg>
