<svg width="50" height="41" viewBox="0 0 50 41" fill="none" xmlns="http://www.w3.org/2000/svg">
<path d="M3.23503 0.109581V0.0380859H3.4766H47.0043H47.2459V0.109581C48.67 0.20656 49.7324 1.32908 49.9014 2.69148V2.93129V31.3476C49.9014 31.8987 49.7566 32.3631 49.5151 32.7815C48.9593 33.751 48.1389 34.2408 47.0042 34.2408H31.119V38.2106H34.1366C34.8849 38.2106 35.4644 38.7872 35.4644 39.5271C35.4644 40.267 34.8849 40.8435 34.1366 40.8435H16.3441C15.5958 40.8435 14.9921 40.2669 14.9921 39.5271C14.9921 38.7872 15.5957 38.2106 16.3441 38.2106H19.3617V34.2408H3.4766C2.34148 34.2408 1.51381 33.751 0.965767 32.7815C0.717018 32.3427 0.555275 31.8732 0.555275 31.3476V2.93137V2.69156C0.724277 1.32908 1.85891 0.20656 3.23503 0.109581ZM3.23503 2.93137V31.3477C3.23503 31.5161 3.3072 31.5875 3.4766 31.5875H47.0043C47.1732 31.5875 47.2459 31.5161 47.2459 31.3477V2.93137V2.69156H3.23512V2.93137H3.23503Z" fill="#FEF212"/>
</svg>
